<svg id="Layer_1" data-name="Layer 1" xmlns="http://www.w3.org/2000/svg" viewBox="0 0 704.73 180.06"><defs><style>.cls-1,.cls-2{fill:#fff;}.cls-1{stroke:#fff;stroke-miterlimit:10;stroke-width:0.5px;}</style></defs><title>excellence</title><path class="cls-1" d="M87.7,352c0-.21.32-.53,1-.53,9.54,0,20-6,30.95-15.69A29.17,29.17,0,0,1,117,323.5c0-14.73,10.17-30.21,25-38.58l.42-.11a.86.86,0,0,1,.85.95,1.1,1.1,0,0,1-.53.75c-14.1,7.95-24.06,22.57-24.06,36.78A28.22,28.22,0,0,0,121,334.63c21.31-19.51,43.78-52.36,62.54-79.82l24.06-33.92c-11.87,4.88-23.53,6.79-40,9.12-32.75,4.66-89.46,12.4-97.94,34.66-.11.53-.42.74-.64.74s-.21-.21-.21-.42a1.32,1.32,0,0,1,.11-.64c9.33-25.12,73.77-32.33,107-37.31,16-2.33,26.6-5.62,33.71-8.8,3.6-4.77,8.58-10.38,11.87-10.38a2.32,2.32,0,0,1,1.91.84,1.93,1.93,0,0,1,.42,1c0,3.18-10,8.05-10.18,8.37-.53.43-2.12,2.23-7.42,9.44a15.43,15.43,0,0,1,8.48-2.76c7.21,0,13,5.83,13,13.89a19.43,19.43,0,0,1-1.27,6.67c-6.15,17.28-31.8,19.4-42.93,19.82,13.68,3.5,30.32,15.48,30.32,32.33a27.12,27.12,0,0,1-1.59,9.33c-10.07,29.57-39.65,44.31-63.07,44.31-12.83,0-23.75-4.45-28.62-13.25-11,9.75-22.15,14.73-32,14.73C88,352.54,87.7,352.33,87.7,352Zm120.62-46a29.79,29.79,0,0,0,1.7-9.65c0-19.39-21.62-30.1-29.89-30.1l-1.17.11c-17.27,25.22-38.05,53.31-56.92,70.38,4.45,8.37,14.52,12.51,26.4,12.51C170.38,349.26,198.47,334.84,208.32,306Zm16.12-62.54a15.64,15.64,0,0,0,1.06-5.72c0-6.58-4.56-11.87-10.92-11.87a16,16,0,0,0-10,4l-22.78,32.44C190,261.81,217.44,261.49,224.44,243.47ZM222.1,210a.54.54,0,0,0-.21-.43h-.1c-.85,0-3.4,1.8-6.36,5.83C217.33,214.22,222.1,211.35,222.1,210Z" transform="translate(-68.58 -207.61)"/><path class="cls-1" d="M238.08,318.84c-2.44,0-3.39-2.12-3.39-5.09a25.45,25.45,0,0,1,2.65-10.39c-4.14,3.07-7.31,4.24-9.54,4.24-3,0-4.35-2-4.35-4.66,0-4.35,3.71-10.29,10.71-12.19a6.3,6.3,0,0,1,2-.22c2.34,0,4.35,1.17,6.36,4l1.49-2.22a.61.61,0,0,1,.63-.32,1.94,1.94,0,0,1,1.7,1.48l-.11.32a75.48,75.48,0,0,0-6.15,9.75c-2.54,4.56-3.39,8.06-3.39,10.28s.75,3.29,1.81,3.39h.21c7,0,27.45-20.66,37-23.31l.42-.11a.48.48,0,0,1,.53.42c0,.11-.21.32-.42.53-12.51,5.2-30.1,23.85-37.84,24.07Zm3.39-22.79c-1.59-2.76-3.39-3.82-5.19-3.82-2.86,0-5.72,2.65-7.95,5.62-2.12,2.75-3,4.77-3,6.25s.85,2.12,2.33,2.12C230.56,306.22,236.07,303,241.47,296.05Z" transform="translate(-68.58 -207.61)"/><path class="cls-1" d="M273.47,311.52c-2.33-1.06-3.28-3.39-3.28-6a15.53,15.53,0,0,1,1.69-6.57c3.93-7,8.48-9.44,11.66-9.44,2.55,0,4.24,1.38,4.35,3.18,0,.64-.32,1-.64,1a.66.66,0,0,1-.63-.53,1.8,1.8,0,0,0-.64-1.17,2.55,2.55,0,0,0-1.91-.74c-3,0-7.1,3.82-9,7.53-1.69,3.07-2.33,5.4-2.33,7.2,0,3,2,4.24,4.45,4.35h.53c8,0,22.05-9,31.48-16.11l.53-.21a.45.45,0,0,1,.43.42c0,.11-.11.32-.43.53-10,7.84-24.59,17.28-33.07,17.28A7.69,7.69,0,0,1,273.47,311.52Z" transform="translate(-68.58 -207.61)"/><path class="cls-1" d="M319.68,317.35c-4.56,0-6-6.46-7.95-14.1-8.58,6.79-11.55,12.93-13,12.93h-.1c-.32-.1-.43-.42-.43-.84,0-4.24,10.29-22.16,22.37-39.43,13.14-18.77,28-35.83,34.55-35.83a4.3,4.3,0,0,1,1.17.21,2.87,2.87,0,0,1,1.91,3c0,11.13-40,46.21-47.06,51.41l-7.32,12.72c4.14-5.09,16.85-15.9,23.85-15.9a4.25,4.25,0,0,1,3.61,1.69,3.07,3.07,0,0,1,.42,1.28c0,2.12-2.86,4.66-6.68,5.93a36.77,36.77,0,0,1-10.7,1.59h-.85c2.22,9.12,3.07,13.36,6.57,13.67h.21c7.21,0,25.55-18.86,33.71-21.72l.42-.11a.48.48,0,0,1,.43.32c0,.21-.22.42-.53.53-8.38,3.07-25,21.83-34,22.68Zm37.21-74.09a2.28,2.28,0,0,0-.64-1.7,1.82,1.82,0,0,0-1.06-.32c-7.95,0-38.79,44.52-42.51,50.57C317,288,356.89,252.8,356.89,243.26ZM330,294.77c0-.53-.42-.95-1.27-.95l-.63.11a28,28,0,0,0-4.77,1.69,89.17,89.17,0,0,0-8.59,5.09C325.3,300.39,330,296.58,330,294.77Z" transform="translate(-68.58 -207.61)"/><path class="cls-1" d="M357.3,319.79A3.39,3.39,0,0,1,354,316.4c0-2.33,2.22-4.88,7.84-4.88a26,26,0,0,1,6.89,1c8.06-4.34,60.1-46.63,60.1-65.71,0-4.46-2.86-7.74-10-8.8l-2.23-.11c-11.55,0-26.6,11.77-26.6,29.68l.31,4.77c0,.43-.21.64-.53.64s-.63-.21-.74-.74a36.33,36.33,0,0,1-.42-5.73,29.56,29.56,0,0,1,29.25-29.78h1.59c6.89.42,12.3,4.13,12.3,11.34,0,6.57-4.66,16.22-16.85,28.83-14.74,14.84-29.26,28.2-42.51,36.67,9.54,2.76,19.72,4.88,29.47,4.88a51.19,51.19,0,0,0,15.68-2.23l.43-.1c.42,0,.74.21.74.53s-.21.42-.85.63a52.75,52.75,0,0,1-16.32,2.34c-15.26,0-29.57-4.88-30.95-5-1.17.75-8.48,5.2-13.15,5.2Zm9.33-6a16.12,16.12,0,0,0-5-.85c-4.24,0-5.83,2.12-5.83,3.6a1.19,1.19,0,0,0,.42,1,1.55,1.55,0,0,0,1.27.42C360,317.88,364.51,315.12,366.63,313.75Z" transform="translate(-68.58 -207.61)"/><path class="cls-1" d="M455.86,352c0-.21.32-.53,1-.53,9.54,0,20-6,30.95-15.69a29,29,0,0,1-2.65-12.29c0-14.73,10.18-30.21,25-38.58l.43-.11a.86.86,0,0,1,.85.95,1.12,1.12,0,0,1-.54.75c-14.09,7.95-24.06,22.57-24.06,36.78a28.24,28.24,0,0,0,2.34,11.34c21.3-19.51,43.77-52.36,62.53-79.82l24.07-33.92c-11.88,4.88-23.54,6.79-40,9.12-32.75,4.66-89.46,12.4-97.94,34.66-.1.53-.42.74-.63.74s-.21-.21-.21-.42a1.43,1.43,0,0,1,.1-.64C446.43,239.23,510.87,232,544.05,227c16-2.33,26.61-5.62,33.71-8.8,3.6-4.77,8.59-10.38,11.87-10.38a2.32,2.32,0,0,1,1.91.84,1.93,1.93,0,0,1,.42,1c0,3.18-10,8.05-10.17,8.37-.53.43-2.12,2.23-7.42,9.44a15.4,15.4,0,0,1,8.48-2.76c7.2,0,13,5.83,13,13.89a19.43,19.43,0,0,1-1.27,6.67c-6.14,17.28-31.8,19.4-42.93,19.82,13.68,3.5,30.32,15.48,30.32,32.33a26.89,26.89,0,0,1-1.59,9.33c-10.07,29.57-39.64,44.31-63.07,44.31-12.82,0-23.74-4.45-28.62-13.25-11,9.75-22.15,14.73-32,14.73C456.18,352.54,455.86,352.33,455.86,352Zm120.63-46a30,30,0,0,0,1.69-9.65c0-19.39-21.62-30.1-29.89-30.1l-1.17.11c-17.27,25.22-38.05,53.31-56.92,70.38,4.46,8.37,14.53,12.51,26.4,12.51C538.54,349.26,566.63,334.84,576.49,306Zm16.11-62.54a15.64,15.64,0,0,0,1.06-5.72c0-6.58-4.56-11.87-10.92-11.87a15.94,15.94,0,0,0-10,4L550,262.34C558.15,261.81,585.6,261.49,592.6,243.47ZM590.27,210a.55.55,0,0,0-.22-.43H590c-.85,0-3.39,1.8-6.36,5.83C585.5,214.22,590.27,211.35,590.27,210Z" transform="translate(-68.58 -207.61)"/><path class="cls-1" d="M595.22,327.53c-2.12-1.06-3-3.29-3-6.26,0-10.28,10.81-29.46,17-39,15.48-23.85,37.63-42.3,44.52-42.3a1.85,1.85,0,0,1,1.59.64,2.09,2.09,0,0,1,.53,1.59c0,10.07-41.87,44.62-50.45,52.47-1.17,1.48-10.18,19.61-10.18,27.56,0,2.22.74,3.6,2.54,3.6,11.34-.21,32.65-26.29,45.37-31.9l.53-.11a.48.48,0,0,1,.53.42.77.77,0,0,1-.64.64C633.27,298.8,607.62,328,597.13,328A4.24,4.24,0,0,1,595.22,327.53Zm42.93-64.66c8.58-8.59,16.11-17.7,16.11-20.25l-.11-.42a.6.6,0,0,0-.53-.21c-1.8,0-7.1,2.86-15.26,10.38-11,10.18-22.9,24.91-31.59,39.54C615.78,283.75,628,273,638.15,262.87Z" transform="translate(-68.58 -207.61)"/><path class="cls-1" d="M653,318.84c-2.44,0-3.39-2.12-3.39-5.09a25.45,25.45,0,0,1,2.65-10.39c-4.14,3.07-7.32,4.24-9.54,4.24-3,0-4.35-2-4.35-4.66,0-4.35,3.71-10.29,10.71-12.19a6.27,6.27,0,0,1,2-.22c2.33,0,4.35,1.17,6.36,4l1.49-2.22a.61.61,0,0,1,.63-.32,1.94,1.94,0,0,1,1.7,1.48l-.11.32a75.48,75.48,0,0,0-6.15,9.75c-2.54,4.56-3.39,8.06-3.39,10.28s.74,3.29,1.8,3.39h.21c7,0,27.46-20.66,37-23.31l.42-.11a.48.48,0,0,1,.53.42c0,.11-.21.32-.42.53-12.51,5.2-30.1,23.85-37.84,24.07Zm3.39-22.79c-1.59-2.76-3.39-3.82-5.19-3.82-2.86,0-5.73,2.65-7.95,5.62-2.12,2.75-3,4.77-3,6.25s.85,2.12,2.33,2.12C645.45,306.22,651,303,656.37,296.05Z" transform="translate(-68.58 -207.61)"/><path class="cls-1" d="M688.37,311.52c-2.33-1.06-3.28-3.39-3.28-6a15.53,15.53,0,0,1,1.69-6.57c3.92-7,8.48-9.44,11.66-9.44,2.55,0,4.24,1.38,4.35,3.18,0,.64-.32,1-.64,1a.68.68,0,0,1-.64-.53,1.75,1.75,0,0,0-.63-1.17,2.56,2.56,0,0,0-1.91-.74c-3,0-7.1,3.82-9,7.53-1.7,3.07-2.33,5.4-2.33,7.2,0,3,2,4.24,4.45,4.35h.53c7.95,0,22-9,31.48-16.11l.53-.21a.46.46,0,0,1,.43.42c0,.11-.11.32-.43.53-10,7.84-24.59,17.28-33.07,17.28A7.66,7.66,0,0,1,688.37,311.52Z" transform="translate(-68.58 -207.61)"/><path class="cls-1" d="M734.58,317.35c-4.56,0-6-6.46-8-14.1-8.59,6.79-11.55,12.93-13,12.93h-.1c-.32-.1-.43-.42-.43-.84,0-4.24,10.28-22.16,22.37-39.43,13.14-18.77,28-35.83,34.55-35.83a4.3,4.3,0,0,1,1.17.21,2.87,2.87,0,0,1,1.91,3c0,11.13-40,46.21-47.07,51.41l-7.31,12.72c4.13-5.09,16.85-15.9,23.85-15.9a4.25,4.25,0,0,1,3.6,1.69,3,3,0,0,1,.43,1.28c0,2.12-2.86,4.66-6.68,5.93A36.84,36.84,0,0,1,729.17,302h-.84c2.22,9.12,3.07,13.36,6.57,13.67h.21c7.21,0,25.54-18.86,33.71-21.72l.42-.11a.47.47,0,0,1,.42.32c0,.21-.21.42-.53.53-8.37,3.07-25,21.83-34,22.68Zm37.2-74.09a2.27,2.27,0,0,0-.63-1.7,1.82,1.82,0,0,0-1.06-.32c-8,0-38.8,44.52-42.51,50.57C731.93,288,771.78,252.8,771.78,243.26Zm-26.92,51.51c0-.53-.42-.95-1.27-.95l-.64.11a28.58,28.58,0,0,0-4.77,1.69,90.35,90.35,0,0,0-8.58,5.09C740.2,300.39,744.86,296.58,744.86,294.77Z" transform="translate(-68.58 -207.61)"/><path class="cls-2" d="M77,377.68h3.13c2,0,3.5.62,3.5,2.42a2.2,2.2,0,0,1-1.36,2.12v.06a2.24,2.24,0,0,1,1.88,2.33c0,2-1.6,2.88-3.76,2.88H77Zm3,4.05c1.37,0,2-.54,2-1.39s-.64-1.3-1.92-1.3H78.78v2.69Zm.23,4.4c1.44,0,2.24-.51,2.24-1.62S81.71,383,80.25,383H78.78v3.1Z" transform="translate(-68.58 -207.61)"/><path class="cls-2" d="M100.11,377.68h1.74V386h4.07v1.47h-5.81Z" transform="translate(-68.58 -207.61)"/><path class="cls-2" d="M124.39,377.68h2l3.2,9.81h-1.84l-1.5-5.22c-.31-1-.6-2.16-.88-3.23h-.06c-.27,1.08-.56,2.19-.87,3.23L123,387.49H121.2Zm-1.3,5.79h4.62v1.36h-4.62Z" transform="translate(-68.58 -207.61)"/><path class="cls-2" d="M144.06,382.62c0-3.21,2-5.12,4.49-5.12a3.93,3.93,0,0,1,2.83,1.24l-.93,1.12a2.6,2.6,0,0,0-1.86-.85c-1.6,0-2.75,1.35-2.75,3.55s1.06,3.6,2.7,3.6a2.79,2.79,0,0,0,2.1-1l.93,1.09a3.94,3.94,0,0,1-3.09,1.43C146,387.67,144.06,385.86,144.06,382.62Z" transform="translate(-68.58 -207.61)"/><path class="cls-2" d="M166.35,377.68h1.74v4.46h0l3.49-4.46h1.93l-3,3.83,3.53,6h-1.92l-2.65-4.61-1.41,1.75v2.86h-1.74Z" transform="translate(-68.58 -207.61)"/><path class="cls-2" d="M219.59,377.68h5.91v1.46h-4.17v2.52h3.53v1.46h-3.53V386h4.32v1.47h-6.06Z" transform="translate(-68.58 -207.61)"/><path class="cls-2" d="M241.05,382.43l-2.61-4.75h1.93l1.09,2.18c.24.45.45.9.74,1.5h.06c.25-.6.44-1.05.66-1.5l1-2.18h1.85l-2.61,4.83,2.78,5h-1.93l-1.2-2.32c-.25-.5-.5-1-.79-1.59H242c-.26.6-.49,1.09-.72,1.59l-1.17,2.32h-1.85Z" transform="translate(-68.58 -207.61)"/><path class="cls-2" d="M257.87,382.62c0-3.21,2-5.12,4.49-5.12a3.93,3.93,0,0,1,2.83,1.24l-.93,1.12a2.56,2.56,0,0,0-1.86-.85c-1.6,0-2.74,1.35-2.74,3.55s1,3.6,2.7,3.6a2.77,2.77,0,0,0,2.09-1l.93,1.09a3.92,3.92,0,0,1-3.09,1.43C259.83,387.67,257.87,385.86,257.87,382.62Z" transform="translate(-68.58 -207.61)"/><path class="cls-2" d="M278.1,377.68H284v1.46h-4.17v2.52h3.53v1.46h-3.53V386h4.32v1.47H278.1Z" transform="translate(-68.58 -207.61)"/><path class="cls-2" d="M297.73,377.68h1.73V386h4.08v1.47h-5.81Z" transform="translate(-68.58 -207.61)"/><path class="cls-2" d="M317.23,377.68H319V386H323v1.47h-5.81Z" transform="translate(-68.58 -207.61)"/><path class="cls-2" d="M336.61,377.68h5.91v1.46h-4.17v2.52h3.53v1.46h-3.53V386h4.32v1.47h-6.06Z" transform="translate(-68.58 -207.61)"/><path class="cls-2" d="M355.47,377.68h1.79l3.05,5.51,1,2.1h.06c-.08-1-.22-2.26-.22-3.35v-4.26h1.65v9.81H361L358,382l-1-2.09h-.06c.09,1,.23,2.22.23,3.31v4.3h-1.66Z" transform="translate(-68.58 -207.61)"/><path class="cls-2" d="M374.89,382.62c0-3.21,2-5.12,4.49-5.12a3.93,3.93,0,0,1,2.83,1.24l-.93,1.12a2.58,2.58,0,0,0-1.86-.85c-1.6,0-2.74,1.35-2.74,3.55s1.05,3.6,2.7,3.6a2.77,2.77,0,0,0,2.09-1l.93,1.09a3.92,3.92,0,0,1-3.09,1.43C376.85,387.67,374.89,385.86,374.89,382.62Z" transform="translate(-68.58 -207.61)"/><path class="cls-2" d="M395.12,377.68H401v1.46h-4.17v2.52h3.53v1.46h-3.53V386h4.32v1.47h-6.06Z" transform="translate(-68.58 -207.61)"/><path class="cls-2" d="M416.54,386.5a1.12,1.12,0,1,1,1.11,1.17A1.12,1.12,0,0,1,416.54,386.5Z" transform="translate(-68.58 -207.61)"/><path class="cls-2" d="M466.44,379.14h-2.83v-1.46H471v1.46h-2.83v8.35h-1.74Z" transform="translate(-68.58 -207.61)"/><path class="cls-2" d="M502.63,377.68h3.3c2,0,3.61.72,3.61,2.91s-1.57,3.06-3.61,3.06h-1.56v3.84h-1.74Zm3.12,4.58c1.35,0,2.08-.55,2.08-1.67s-.73-1.52-2.08-1.52h-1.38v3.19Zm-.14.93,1.26-1,3.06,5.34h-2Z" transform="translate(-68.58 -207.61)"/><path class="cls-2" d="M541.53,383.19v-5.51h1.74v5.64c0,2.14.8,2.84,2,2.84s2-.7,2-2.84v-5.64H549v5.51c0,3.22-1.43,4.48-3.7,4.48S541.53,386.41,541.53,383.19Z" transform="translate(-68.58 -207.61)"/><path class="cls-2" d="M581.31,377.68h1.74V386h4.07v1.47h-5.81Z" transform="translate(-68.58 -207.61)"/><path class="cls-2" d="M622.31,383.84l-2.95-6.16h1.86l1.07,2.51c.28.73.56,1.41.87,2.15h.06c.31-.74.62-1.42.9-2.15l1.07-2.51H627l-3,6.16v3.65h-1.74Z" transform="translate(-68.58 -207.61)"/><path class="cls-2" d="M673.18,382.54c0-3.17,1.77-5,4.32-5s4.33,1.88,4.33,5-1.77,5.13-4.33,5.13S673.18,385.72,673.18,382.54Zm6.86,0c0-2.2-1-3.53-2.54-3.53s-2.53,1.33-2.53,3.53,1,3.62,2.53,3.62S680,384.75,680,382.54Z" transform="translate(-68.58 -207.61)"/><path class="cls-2" d="M701.67,383.19v-5.51h1.74v5.64c0,2.14.8,2.84,2,2.84s2-.7,2-2.84v-5.64h1.67v5.51c0,3.22-1.43,4.48-3.7,4.48S701.67,386.41,701.67,383.19Z" transform="translate(-68.58 -207.61)"/><path class="cls-2" d="M729.62,377.68h3.31c2,0,3.61.72,3.61,2.91s-1.57,3.06-3.61,3.06h-1.57v3.84h-1.74Zm3.13,4.58c1.34,0,2.07-.55,2.07-1.67s-.73-1.52-2.07-1.52h-1.39v3.19Zm-.15.93,1.26-1,3.06,5.34H735Z" transform="translate(-68.58 -207.61)"/><path class="cls-2" d="M757.63,386.23l1-1.19a3.86,3.86,0,0,0,2.56,1.12c1.1,0,1.71-.5,1.71-1.27s-.64-1.06-1.53-1.44l-1.34-.58a2.83,2.83,0,0,1-2-2.61c0-1.56,1.38-2.76,3.29-2.76a4.3,4.3,0,0,1,3,1.25l-.9,1.1a3.15,3.15,0,0,0-2.13-.84c-.93,0-1.53.44-1.53,1.15s.74,1.06,1.56,1.39l1.32.56a2.7,2.7,0,0,1,2,2.64c0,1.59-1.32,2.92-3.52,2.92A5,5,0,0,1,757.63,386.23Z" transform="translate(-68.58 -207.61)"/></svg>