<svg id="Layer_1" data-name="Layer 1" xmlns="http://www.w3.org/2000/svg" viewBox="0 0 704.73 179.59"><defs><style>.cls-1,.cls-2{fill:#1d1d1b;}.cls-1{stroke:#fff;stroke-miterlimit:10;stroke-width:0.5px;}</style></defs><title>excellence</title><path class="cls-1" d="M87.7,349c0-.21.32-.53,1-.53,9.54,0,20-6,30.95-15.69A29.17,29.17,0,0,1,117,320.48c0-14.74,10.17-30.21,25-38.59l.42-.1a.86.86,0,0,1,.85.95,1.09,1.09,0,0,1-.53.74c-14.1,7.95-24.06,22.58-24.06,36.78A28.19,28.19,0,0,0,121,331.6c21.31-19.5,43.78-52.36,62.54-79.81l24.06-33.92c-11.87,4.87-23.53,6.78-40,9.12-32.75,4.66-89.46,12.4-97.94,34.66-.11.53-.42.74-.64.74s-.21-.21-.21-.43a1.28,1.28,0,0,1,.11-.63c9.33-25.12,73.77-32.33,107-37.31,16-2.33,26.6-5.62,33.71-8.8,3.6-4.77,8.58-10.39,11.87-10.39a2.3,2.3,0,0,1,1.91.85,1.94,1.94,0,0,1,.42.95c0,3.18-10,8.06-10.18,8.38-.53.42-2.12,2.22-7.42,9.43a15.41,15.41,0,0,1,8.48-2.75c7.21,0,13,5.83,13,13.88a19.48,19.48,0,0,1-1.27,6.68c-6.15,17.28-31.8,19.4-42.93,19.82,13.68,3.5,30.32,15.48,30.32,32.33a27.12,27.12,0,0,1-1.59,9.33C202.18,333.3,172.6,348,149.18,348c-12.83,0-23.75-4.45-28.62-13.24-11,9.75-22.15,14.73-32,14.73C88,349.52,87.7,349.31,87.7,349Zm120.62-46a29.73,29.73,0,0,0,1.7-9.64c0-19.4-21.62-30.1-29.89-30.1l-1.17.1c-17.27,25.23-38.05,53.32-56.92,70.39,4.45,8.37,14.52,12.5,26.4,12.5C170.38,346.23,198.47,331.82,208.32,303Zm16.12-62.53a15.69,15.69,0,0,0,1.06-5.73c0-6.57-4.56-11.87-10.92-11.87a16,16,0,0,0-10,4l-22.78,32.43C190,258.78,217.44,258.47,224.44,240.45ZM222.1,207a.52.52,0,0,0-.21-.42h-.1c-.85,0-3.4,1.8-6.36,5.83C217.33,211.19,222.1,208.33,222.1,207Z" transform="translate(-68.58 -204.58)"/><path class="cls-1" d="M238.08,315.81c-2.44,0-3.39-2.12-3.39-5.09a25.41,25.41,0,0,1,2.65-10.38c-4.14,3.07-7.31,4.24-9.54,4.24-3,0-4.35-2-4.35-4.67,0-4.34,3.71-10.28,10.71-12.19a6.59,6.59,0,0,1,2-.21c2.34,0,4.35,1.17,6.36,4l1.49-2.23a.63.63,0,0,1,.63-.32,1.94,1.94,0,0,1,1.7,1.49l-.11.32a74.79,74.79,0,0,0-6.15,9.75c-2.54,4.55-3.39,8.05-3.39,10.28s.75,3.28,1.81,3.39h.21c7,0,27.45-20.67,37-23.32l.42-.1a.48.48,0,0,1,.53.42c0,.11-.21.32-.42.53-12.51,5.19-30.1,23.85-37.84,24.06ZM241.47,293c-1.59-2.75-3.39-3.81-5.19-3.81-2.86,0-5.72,2.65-7.95,5.61-2.12,2.76-3,4.77-3,6.26s.85,2.12,2.33,2.12C230.56,303.2,236.07,300,241.47,293Z" transform="translate(-68.58 -204.58)"/><path class="cls-1" d="M273.47,308.5c-2.33-1.06-3.28-3.4-3.28-6a15.57,15.57,0,0,1,1.69-6.58c3.93-7,8.48-9.43,11.66-9.43,2.55,0,4.24,1.38,4.35,3.18,0,.64-.32.95-.64.95a.66.66,0,0,1-.63-.53,1.78,1.78,0,0,0-.64-1.16,2.55,2.55,0,0,0-1.91-.74c-3,0-7.1,3.81-9,7.52-1.69,3.08-2.33,5.41-2.33,7.21,0,3,2,4.24,4.45,4.34h.53c8,0,22.05-9,31.48-16.11l.53-.21a.45.45,0,0,1,.43.43c0,.1-.11.31-.43.53-10,7.84-24.59,17.27-33.07,17.27A7.85,7.85,0,0,1,273.47,308.5Z" transform="translate(-68.58 -204.58)"/><path class="cls-1" d="M319.68,314.33c-4.56,0-6-6.47-7.95-14.1-8.58,6.78-11.55,12.93-13,12.93h-.1c-.32-.11-.43-.42-.43-.85,0-4.24,10.29-22.15,22.37-39.43,13.14-18.76,28-35.82,34.55-35.82a4.3,4.3,0,0,1,1.17.21,2.87,2.87,0,0,1,1.91,3c0,11.13-40,46.21-47.06,51.4l-7.32,12.72c4.14-5.08,16.85-15.9,23.85-15.9a4.24,4.24,0,0,1,3.61,1.7,3,3,0,0,1,.42,1.27c0,2.12-2.86,4.67-6.68,5.94a37.11,37.11,0,0,1-10.7,1.59h-.85c2.22,9.11,3.07,13.35,6.57,13.67h.21c7.21,0,25.55-18.87,33.71-21.73l.42-.1a.49.49,0,0,1,.43.31c0,.22-.22.43-.53.53-8.38,3.08-25,21.84-34,22.69Zm37.21-74.09a2.25,2.25,0,0,0-.64-1.7,1.82,1.82,0,0,0-1.06-.32c-7.95,0-38.79,44.52-42.51,50.56C317,285,356.89,249.77,356.89,240.24ZM330,291.75c0-.53-.42-.95-1.27-.95l-.63.1a29,29,0,0,0-4.77,1.7,87.15,87.15,0,0,0-8.59,5.09C325.3,297.37,330,293.55,330,291.75Z" transform="translate(-68.58 -204.58)"/><path class="cls-1" d="M357.3,316.77a3.39,3.39,0,0,1-3.28-3.4c0-2.33,2.22-4.87,7.84-4.87a26,26,0,0,1,6.89.95c8.06-4.35,60.1-46.64,60.1-65.72,0-4.45-2.86-7.74-10-8.8l-2.23-.1c-11.55,0-26.6,11.77-26.6,29.68l.31,4.77c0,.42-.21.63-.53.63s-.63-.21-.74-.74a36.12,36.12,0,0,1-.42-5.72,29.57,29.57,0,0,1,29.25-29.79h1.59c6.89.43,12.3,4.14,12.3,11.34,0,6.58-4.66,16.22-16.85,28.84-14.74,14.84-29.26,28.19-42.51,36.67,9.54,2.76,19.72,4.88,29.47,4.88a51.49,51.49,0,0,0,15.68-2.23l.43-.11c.42,0,.74.22.74.54s-.21.42-.85.63a52.74,52.74,0,0,1-16.32,2.33c-15.26,0-29.57-4.87-30.95-5-1.17.74-8.48,5.2-13.15,5.2Zm9.33-6a16.37,16.37,0,0,0-5-.84c-4.24,0-5.83,2.11-5.83,3.6a1.16,1.16,0,0,0,.42.95,1.55,1.55,0,0,0,1.27.43C360,314.86,364.51,312.1,366.63,310.72Z" transform="translate(-68.58 -204.58)"/><path class="cls-1" d="M455.86,349c0-.21.32-.53,1-.53,9.54,0,20-6,30.95-15.69a29,29,0,0,1-2.65-12.29c0-14.74,10.18-30.21,25-38.59l.43-.1a.86.86,0,0,1,.85.95,1.11,1.11,0,0,1-.54.74c-14.09,7.95-24.06,22.58-24.06,36.78a28.2,28.2,0,0,0,2.34,11.34c21.3-19.5,43.77-52.36,62.53-79.81l24.07-33.92c-11.88,4.87-23.54,6.78-40,9.12-32.75,4.66-89.46,12.4-97.94,34.66-.1.53-.42.74-.63.74s-.21-.21-.21-.43a1.39,1.39,0,0,1,.1-.63C446.43,236.21,510.87,229,544.05,224c16-2.33,26.61-5.62,33.71-8.8,3.6-4.77,8.59-10.39,11.87-10.39a2.3,2.3,0,0,1,1.91.85,1.94,1.94,0,0,1,.42.95c0,3.18-10,8.06-10.17,8.38-.53.42-2.12,2.22-7.42,9.43a15.38,15.38,0,0,1,8.48-2.75c7.2,0,13,5.83,13,13.88a19.48,19.48,0,0,1-1.27,6.68c-6.14,17.28-31.8,19.4-42.93,19.82,13.68,3.5,30.32,15.48,30.32,32.33a26.89,26.89,0,0,1-1.59,9.33C570.34,333.3,540.77,348,517.34,348c-12.82,0-23.74-4.45-28.62-13.24-11,9.75-22.15,14.73-32,14.73C456.18,349.52,455.86,349.31,455.86,349Zm120.63-46a30,30,0,0,0,1.69-9.64c0-19.4-21.62-30.1-29.89-30.1l-1.17.1c-17.27,25.23-38.05,53.32-56.92,70.39,4.46,8.37,14.53,12.5,26.4,12.5C538.54,346.23,566.63,331.82,576.49,303Zm16.11-62.53a15.69,15.69,0,0,0,1.06-5.73c0-6.57-4.56-11.87-10.92-11.87a16,16,0,0,0-10,4L550,259.31C558.15,258.78,585.6,258.47,592.6,240.45ZM590.27,207a.53.53,0,0,0-.22-.42H590c-.85,0-3.39,1.8-6.36,5.83C585.5,211.19,590.27,208.33,590.27,207Z" transform="translate(-68.58 -204.58)"/><path class="cls-1" d="M595.22,324.5c-2.12-1.06-3-3.28-3-6.25,0-10.28,10.81-29.47,17-39C624.69,255.39,646.84,237,653.73,237a1.85,1.85,0,0,1,1.59.64,2.09,2.09,0,0,1,.53,1.59c0,10.07-41.87,44.62-50.45,52.46-1.17,1.49-10.18,19.61-10.18,27.56,0,2.23.74,3.61,2.54,3.61,11.34-.21,32.65-26.29,45.37-31.91l.53-.1a.48.48,0,0,1,.53.42.78.78,0,0,1-.64.64c-10.28,3.92-35.93,33.07-46.42,33.07A4.12,4.12,0,0,1,595.22,324.5Zm42.93-64.66c8.58-8.58,16.11-17.7,16.11-20.24l-.11-.42a.6.6,0,0,0-.53-.22c-1.8,0-7.1,2.86-15.26,10.39-11,10.18-22.9,24.91-31.59,39.54C615.78,280.73,628,270,638.15,259.84Z" transform="translate(-68.58 -204.58)"/><path class="cls-1" d="M653,315.81c-2.44,0-3.39-2.12-3.39-5.09a25.41,25.41,0,0,1,2.65-10.38c-4.14,3.07-7.32,4.24-9.54,4.24-3,0-4.35-2-4.35-4.67,0-4.34,3.71-10.28,10.71-12.19a6.56,6.56,0,0,1,2-.21c2.33,0,4.35,1.17,6.36,4l1.49-2.23a.63.63,0,0,1,.63-.32,1.94,1.94,0,0,1,1.7,1.49l-.11.32a74.79,74.79,0,0,0-6.15,9.75c-2.54,4.55-3.39,8.05-3.39,10.28s.74,3.28,1.8,3.39h.21c7,0,27.46-20.67,37-23.32l.42-.1a.48.48,0,0,1,.53.42c0,.11-.21.32-.42.53-12.51,5.19-30.1,23.85-37.84,24.06ZM656.37,293c-1.59-2.75-3.39-3.81-5.19-3.81-2.86,0-5.73,2.65-7.95,5.61-2.12,2.76-3,4.77-3,6.26s.85,2.12,2.33,2.12C645.45,303.2,651,300,656.37,293Z" transform="translate(-68.58 -204.58)"/><path class="cls-1" d="M688.37,308.5c-2.33-1.06-3.28-3.4-3.28-6a15.57,15.57,0,0,1,1.69-6.58c3.92-7,8.48-9.43,11.66-9.43,2.55,0,4.24,1.38,4.35,3.18,0,.64-.32.95-.64.95a.68.68,0,0,1-.64-.53,1.73,1.73,0,0,0-.63-1.16,2.56,2.56,0,0,0-1.91-.74c-3,0-7.1,3.81-9,7.52-1.7,3.08-2.33,5.41-2.33,7.21,0,3,2,4.24,4.45,4.34h.53c7.95,0,22-9,31.48-16.11l.53-.21a.46.46,0,0,1,.43.43c0,.1-.11.31-.43.53-10,7.84-24.59,17.27-33.07,17.27A7.82,7.82,0,0,1,688.37,308.5Z" transform="translate(-68.58 -204.58)"/><path class="cls-1" d="M734.58,314.33c-4.56,0-6-6.47-8-14.1-8.59,6.78-11.55,12.93-13,12.93h-.1c-.32-.11-.43-.42-.43-.85,0-4.24,10.28-22.15,22.37-39.43,13.14-18.76,28-35.82,34.55-35.82a4.3,4.3,0,0,1,1.17.21,2.87,2.87,0,0,1,1.91,3c0,11.13-40,46.21-47.07,51.4l-7.31,12.72c4.13-5.08,16.85-15.9,23.85-15.9a4.23,4.23,0,0,1,3.6,1.7,2.91,2.91,0,0,1,.43,1.27c0,2.12-2.86,4.67-6.68,5.94A37.18,37.18,0,0,1,729.17,299h-.84c2.22,9.11,3.07,13.35,6.57,13.67h.21c7.21,0,25.54-18.87,33.71-21.73l.42-.1a.47.47,0,0,1,.42.31c0,.22-.21.43-.53.53-8.37,3.08-25,21.84-34,22.69Zm37.2-74.09a2.24,2.24,0,0,0-.63-1.7,1.82,1.82,0,0,0-1.06-.32c-8,0-38.8,44.52-42.51,50.56C731.93,285,771.78,249.77,771.78,240.24Zm-26.92,51.51c0-.53-.42-.95-1.27-.95l-.64.1a29.71,29.71,0,0,0-4.77,1.7,88.27,88.27,0,0,0-8.58,5.09C740.2,297.37,744.86,293.55,744.86,291.75Z" transform="translate(-68.58 -204.58)"/><path class="cls-2" d="M117.26,370.85h4.18c2.69,0,4.67.82,4.67,3.22a3,3,0,0,1-1.82,2.84V377a3,3,0,0,1,2.51,3.1c0,2.62-2.14,3.84-5,3.84h-4.52Zm4,5.4c1.83,0,2.6-.71,2.6-1.85s-.85-1.74-2.55-1.74h-1.7v3.59Zm.31,5.87c1.92,0,3-.68,3-2.16s-1-2-3-2h-2v4.13Z" transform="translate(-68.58 -204.58)"/><path class="cls-2" d="M129.2,370.85h2.32V382H137v1.95H129.2Z" transform="translate(-68.58 -204.58)"/><path class="cls-2" d="M141.76,370.85h2.72l4.26,13.08h-2.45l-2-7c-.41-1.38-.8-2.88-1.18-4.31H143c-.36,1.45-.75,2.93-1.16,4.31l-2,7h-2.37ZM140,378.57h6.16v1.82H140Z" transform="translate(-68.58 -204.58)"/><path class="cls-2" d="M149.47,377.44c0-4.29,2.68-6.83,6-6.83a5.17,5.17,0,0,1,3.77,1.66L158,373.76a3.42,3.42,0,0,0-2.48-1.13c-2.13,0-3.66,1.8-3.66,4.73s1.41,4.8,3.6,4.8a3.7,3.7,0,0,0,2.8-1.35l1.24,1.46a5.23,5.23,0,0,1-4.12,1.9C152.08,384.17,149.47,381.76,149.47,377.44Z" transform="translate(-68.58 -204.58)"/><path class="cls-2" d="M161.68,370.85H164v5.94h.06l4.66-5.94h2.57l-4,5.11,4.7,8h-2.56l-3.53-6.15L164,380.12v3.81h-2.32Z" transform="translate(-68.58 -204.58)"/><path class="cls-2" d="M277.73,370.85h7.88v1.95h-5.56v3.36h4.71v1.95h-4.71V382h5.76v1.95h-8.08Z" transform="translate(-68.58 -204.58)"/><path class="cls-2" d="M290.8,377.19l-3.48-6.34h2.58l1.46,2.9c.31.6.59,1.21,1,2h.08c.33-.79.59-1.4.88-2l1.39-2.9h2.46l-3.48,6.45,3.71,6.63H294.8l-1.6-3.09c-.33-.66-.66-1.32-1-2.12h-.08c-.35.8-.66,1.46-1,2.12l-1.55,3.09h-2.47Z" transform="translate(-68.58 -204.58)"/><path class="cls-2" d="M298.18,377.44c0-4.29,2.68-6.83,6-6.83a5.19,5.19,0,0,1,3.77,1.66l-1.24,1.49a3.44,3.44,0,0,0-2.49-1.13c-2.12,0-3.65,1.8-3.65,4.73s1.41,4.8,3.6,4.8a3.67,3.67,0,0,0,2.79-1.35l1.24,1.46a5.21,5.21,0,0,1-4.12,1.9C300.79,384.17,298.18,381.76,298.18,377.44Z" transform="translate(-68.58 -204.58)"/><path class="cls-2" d="M310.39,370.85h7.88v1.95h-5.56v3.36h4.71v1.95h-4.71V382h5.76v1.95h-8.08Z" transform="translate(-68.58 -204.58)"/><path class="cls-2" d="M321.15,370.85h2.32V382h5.43v1.95h-7.75Z" transform="translate(-68.58 -204.58)"/><path class="cls-2" d="M331.19,370.85h2.32V382h5.43v1.95h-7.75Z" transform="translate(-68.58 -204.58)"/><path class="cls-2" d="M341.23,370.85h7.87v1.95h-5.55v3.36h4.71v1.95h-4.71V382h5.76v1.95h-8.08Z" transform="translate(-68.58 -204.58)"/><path class="cls-2" d="M352,370.85h2.39l4.06,7.35,1.35,2.8h.08c-.11-1.36-.29-3-.29-4.47v-5.68h2.21v13.08H359.4l-4.06-7.36L354,373.79h-.08c.12,1.38.3,3,.3,4.41v5.73H352Z" transform="translate(-68.58 -204.58)"/><path class="cls-2" d="M364.42,377.44c0-4.29,2.68-6.83,6-6.83a5.15,5.15,0,0,1,3.76,1.66l-1.24,1.49a3.4,3.4,0,0,0-2.48-1.13c-2.12,0-3.65,1.8-3.65,4.73s1.41,4.8,3.6,4.8a3.68,3.68,0,0,0,2.79-1.35l1.24,1.46a5.21,5.21,0,0,1-4.12,1.9C367,384.17,364.42,381.76,364.42,377.44Z" transform="translate(-68.58 -204.58)"/><path class="cls-2" d="M376.63,370.85h7.87v1.95H379v3.36h4.71v1.95H379V382h5.75v1.95h-8.07Z" transform="translate(-68.58 -204.58)"/><path class="cls-2" d="M437.39,378.05h4.75v1.68h-4.75Z" transform="translate(-68.58 -204.58)"/><path class="cls-2" d="M521.09,372.8h-3.78v-1.95h9.87v1.95h-3.77v11.13h-2.32Z" transform="translate(-68.58 -204.58)"/><path class="cls-2" d="M529.37,370.85h4.4c2.73,0,4.82,1,4.82,3.88s-2.09,4.09-4.82,4.09h-2.08v5.11h-2.32Zm4.16,6.11c1.8,0,2.77-.74,2.77-2.23s-1-2-2.77-2h-1.84V377Zm-.19,1.24,1.68-1.38,4.08,7.11h-2.6Z" transform="translate(-68.58 -204.58)"/><path class="cls-2" d="M541.14,378.2v-7.35h2.32v7.52c0,2.85,1.07,3.79,2.65,3.79s2.71-.94,2.71-3.79v-7.52h2.23v7.35c0,4.29-1.91,6-4.94,6S541.14,382.49,541.14,378.2Z" transform="translate(-68.58 -204.58)"/><path class="cls-2" d="M554.31,370.85h2.32V382h5.43v1.95h-7.75Z" transform="translate(-68.58 -204.58)"/><path class="cls-2" d="M564.91,379.07,561,370.85h2.48l1.43,3.34c.38,1,.75,1.89,1.16,2.88h.08c.42-1,.83-1.9,1.21-2.88l1.42-3.34h2.42l-3.94,8.22v4.86h-2.32Z" transform="translate(-68.58 -204.58)"/><path class="cls-2" d="M678.23,377.34c0-4.23,2.36-6.73,5.77-6.73s5.77,2.51,5.77,6.73-2.36,6.83-5.77,6.83S678.23,381.57,678.23,377.34Zm9.16,0c0-2.94-1.33-4.71-3.39-4.71s-3.38,1.77-3.38,4.71,1.33,4.82,3.38,4.82S687.39,380.28,687.39,377.34Z" transform="translate(-68.58 -204.58)"/><path class="cls-2" d="M692.34,378.2v-7.35h2.32v7.52c0,2.85,1.06,3.79,2.65,3.79s2.7-.94,2.7-3.79v-7.52h2.23v7.35c0,4.29-1.9,6-4.93,6S692.34,382.49,692.34,378.2Z" transform="translate(-68.58 -204.58)"/><path class="cls-2" d="M705.5,370.85h4.41c2.72,0,4.82,1,4.82,3.88s-2.1,4.09-4.82,4.09h-2.09v5.11H705.5Zm4.17,6.11c1.79,0,2.77-.74,2.77-2.23s-1-2-2.77-2h-1.85V377Zm-.19,1.24,1.68-1.38,4.08,7.11h-2.61Z" transform="translate(-68.58 -204.58)"/><path class="cls-2" d="M716.17,382.26l1.35-1.6a5.09,5.09,0,0,0,3.41,1.5c1.47,0,2.28-.67,2.28-1.69s-.85-1.42-2-1.93l-1.78-.77a3.76,3.76,0,0,1-2.65-3.47c0-2.09,1.84-3.69,4.39-3.69a5.74,5.74,0,0,1,4,1.67L724,373.75a4.24,4.24,0,0,0-2.85-1.12c-1.24,0-2,.58-2,1.53s1,1.41,2.08,1.85l1.76.74c1.56.65,2.65,1.64,2.65,3.53,0,2.12-1.76,3.89-4.7,3.89A6.72,6.72,0,0,1,716.17,382.26Z" transform="translate(-68.58 -204.58)"/></svg>